inDegrees=yes
name=ik_S52_A05_T02
DataType=double
version=3
OpenSimVersion=4.3-2021-08-27-4bc7ad9
endheader
time	pelvis_tilt	pelvis_list	pelvis_rotation	pelvis_tx	pelvis_ty	pelvis_tz	hip_flexion_r	hip_adduction_r	hip_rotation_r	knee_angle_r	knee_angle_r_beta	ankle_angle_r	subtalar_angle_r	mtp_angle_r	hip_flexion_l	hip_adduction_l	hip_rotation_l	knee_angle_l	knee_angle_l_beta	ankle_angle_l	subtalar_angle_l	mtp_angle_l	lumbar_extension	lumbar_bending	lumbar_rotation	arm_flex_r	arm_add_r	arm_rot_r	elbow_flex_r	pro_sup_r	wrist_flex_r	wrist_dev_r	arm_flex_l	arm_add_l	arm_rot_l	elbow_flex_l	pro_sup_l	wrist_flex_l	wrist_dev_l
8.719999999999903	-4.276522823657699	-0.5544991702034376	20.08155683095079	0	0.9399999999999999	0	44.80654381946759	-10.18620937603754	-10.29337689113481	54.15969510872991	0.9452650015236053	0	0	0	44.80654381946759	-10.18620937603754	-10.29337689113481	54.15969510872991	0.9452650015236053	0	0	0	-2.472282694543745	-2.878259388362719	2.392173701633249	61.34424942742763	-9.206419310258051	-10.77729172158717	37.94198539066663	115.6453942882522	0	0	33.50824279758248	-8.419665233688537	-5.689014393792119	39.29149088516544	123.4638677615437	0	0
8.739999999999903	-4.314501137410601	-0.5852376500525449	20.20139935646858	0	0.9399999999999999	0	44.806605238035	-10.18600436592117	-10.29316919255283	54.15987499036653	0.9452681410504281	0	0	0	44.806605238035	-10.18600436592117	-10.29316919255283	54.15987499036653	0.9452681410504281	0	0	0	-2.519449718152134	-2.888733960751323	2.280647217475486	62.10302671538233	-8.827950087520421	-10.63804723644222	36.53369343836442	115.7049926513754	0	0	33.58153069803873	-8.456546148739312	-5.720212040128587	39.33328438925572	123.5038326664029	0	0
8.759999999999902	-4.325983128596174	-0.5846233980671052	20.21583217518598	0	0.9399999999999999	0	44.80652748689693	-10.18605070161645	-10.29331408565498	54.15961894782677	0.9452636722650841	0	0	0	44.80652748689693	-10.18605070161645	-10.29331408565498	54.15961894782677	0.9452636722650841	0	0	0	-2.529464202955293	-2.885435331924581	2.28303571336668	62.11536166583633	-8.847745494715925	-10.65083736530771	36.52357529137984	115.7286605213408	0	0	33.5664473386185	-8.455014772875382	-5.742502771155501	39.32100862053368	123.5169168586105	0	0
8.779999999999902	-4.353486387770692	-0.5793096852874274	20.38540595462172	0	0.9399999999999999	0	44.80660354319885	-10.18579635627903	-10.29305647989567	54.15984109336805	0.9452675494361981	0	0	0	44.80660354319885	-10.18579635627903	-10.29305647989567	54.15984109336805	0.9452675494361981	0	0	0	-2.554613440661752	-2.863373278890034	2.107153054748476	63.41817731506508	-8.099174764348339	-10.46333410571733	34.44952394722704	116.0076026595713	0	0	33.59170330471853	-8.428197483112195	-5.746917697880438	39.35269144734659	123.5393063592585	0	0
8.799999999999901	-4.382495924003853	-0.6090001101509794	20.46053861811891	0	0.9399999999999999	0	44.80665826280659	-10.18561481018963	-10.29287208852855	54.16000200623509	0.9452703578955367	0	0	0	44.80665826280659	-10.18561481018963	-10.29287208852855	54.16000200623509	0.9452703578955367	0	0	0	-2.593433781865128	-2.875398890761378	2.001815452754412	63.99986977798604	-7.729174260905471	-10.29523670547171	33.62107003017862	115.5936334728724	0	0	33.63739963364144	-8.485565206534343	-5.675335178878512	39.34858533292111	123.5125414209075	0	0
8.819999999999901	-4.384007593550085	-0.5893374886353734	20.43425144611998	0	0.9399999999999999	0	44.80670256946476	-10.1854679115489	-10.29272283127741	54.16013228558422	0.9452726316991265	0	0	0	44.80670256946476	-10.1854679115489	-10.29272283127741	54.16013228558422	0.9452726316991265	0	0	0	-2.588134501063472	-2.856707902036348	2.01858621336885	63.99321105800327	-7.718628279484054	-10.26149399439536	33.33151125264656	115.3915807155562	0	0	33.60435542592838	-8.439522961359947	-5.615791856395051	39.34813072527755	123.4712546871558	0	0
8.8399999999999	-4.400321832260687	-0.5972518149737541	20.55895099291709	0	0.9399999999999999	0	44.80678285246611	-10.18519924130336	-10.29245068546506	54.16036621018078	0.9452767144535377	0	0	0	44.80678285246611	-10.18519924130336	-10.29245068546506	54.16036621018078	0.9452767144535377	0	0	0	-2.60758157686201	-2.850160791793131	1.878876886490904	64.82128832535828	-7.111406010164925	-9.703909449454006	32.32207752762701	115.0292446820169	0	0	33.62628122597216	-8.452095650973533	-5.534134839862312	39.35370564681215	123.4091194389015	0	0
8.8599999999999	-4.448349617239064	-0.6275414779595264	20.60908905470994	0	0.9399999999999999	0	44.80683750672765	-10.18501871999851	-10.2922669881104	54.16052730221475	0.9452795260399293	0	0	0	44.80683750672765	-10.18501871999851	-10.2922669881104	54.16052730221475	0.9452795260399293	0	0	0	-2.664395968142505	-2.856407968160763	1.788147732986741	65.30339691610297	-6.792114224474015	-9.629028812525126	31.70540255295129	114.4946444865402	0	0	33.73744807790595	-8.499295098255146	-5.492838125507082	39.36509098883855	123.3696690509647	0	0
8.8799999999999	-4.464456113632946	-0.6304555495085022	20.67818681206777	0	0.9399999999999999	0	44.80689852128138	-10.18481648763756	-10.29206141328636	54.16070644213531	0.9452826526213648	0	0	0	44.80689852128138	-10.18481648763756	-10.29206141328636	54.16070644213531	0.9452826526213648	0	0	0	-2.681743667894582	-2.847837032498633	1.691767093197602	65.69742000811954	-6.511863317030159	-9.445816530012488	31.03816516470409	113.750185845833	0	0	33.73180729116141	-8.509242587127524	-5.504043543382636	39.36903889507513	123.3588173670437	0	0
8.899999999999899	-4.479633340550043	-0.6150487807712366	20.72163567859965	0	0.9399999999999999	0	44.80696303644101	-10.18460116156041	-10.29184302004032	54.16089453671461	0.9452859354910788	0	0	0	44.80696303644101	-10.18460116156041	-10.29184302004032	54.16089453671461	0.9452859354910788	0	0	0	-2.691465020664526	-2.823602883849502	1.623376115403654	66.04809790490727	-6.223183262626907	-9.11122629147418	30.71120105962736	113.6529686995745	0	0	33.74404587756084	-8.490429521342554	-5.543416024122917	39.3726565541463	123.3509245071172	0	0
8.919999999999899	-4.491086408287875	-0.6011635836313918	20.86585544261564	0	0.9399999999999999	0	44.80704871838203	-10.18431879202225	-10.29155535420504	54.16114713950432	0.9452903442414589	0	0	0	44.80704871838203	-10.18431879202225	-10.29155535420504	54.16114713950432	0.9452903442414589	0	0	0	-2.700680064400224	-2.798076867926048	1.481455763742578	66.32459186205274	-5.962971967039938	-8.949552185590221	29.90192978712101	111.3551001023608	0	0	33.74981435873827	-8.417365723019072	-5.537665016179918	39.38458347569067	123.3572157257271	0	0
8.939999999999898	-4.486554953094124	-0.6205256974485182	20.89179182397917	0	0.9399999999999999	0	44.80709077499794	-10.18417990353586	-10.29141394130751	54.16127080648554	0.9452925026374572	0	0	0	44.80709077499794	-10.18417990353586	-10.29141394130751	54.16127080648554	0.9452925026374572	0	0	0	-2.703822157775708	-2.816142403991531	1.45892634323032	66.48289537914687	-5.733622119590479	-9.180551851904902	29.74588165958832	111.5490684821465	0	0	33.77880319899035	-8.453145444592158	-5.497755309093588	39.36251106346255	123.3766704758846	0	0
8.959999999999898	-4.499561833941423	-0.6590215819115999	20.79144206614447	0	0.9399999999999999	0	44.80714780987309	-10.18399138973676	-10.29122203912077	54.16143830857749	0.9452954261004658	0	0	0	44.80714780987309	-10.18399138973676	-10.29122203912077	54.16143830857749	0.9452954261004658	0	0	0	-2.729209160425361	-2.84888001317118	1.497709435003682	66.74844669775329	-5.617824212343153	-9.750011613978399	28.91280522455985	110.7046328229427	0	0	33.84809929684848	-8.533950982861027	-5.542204152800411	39.34169032849777	123.3934141608235	0	0
8.979999999999897	-4.504961957127664	-0.6594624586944475	20.79409514524464	0	0.9399999999999999	0	44.8072942459684	-10.18344866659064	-10.29069793443438	54.16185832775538	0.9453027568180414	0	0	0	44.8072942459684	-10.18344866659064	-10.29069793443438	54.16185832775538	0.9453027568180414	0	0	0	-2.735342508346718	-2.845219514441362	1.494317065927057	66.75350036001679	-5.635111799923522	-9.738623885652123	28.9392011760673	110.6917683109298	0	0	33.84327159724044	-8.525603998390379	-5.559017576542773	39.36863901380311	123.3671191399848	0	0
8.999999999999897	-4.505648790669264	-0.6524312646756731	20.73154307229312	0	0.9399999999999999	0	44.80736429094213	-10.18321679797609	-10.29046188777934	54.16206322466686	0.945306332943774	0	0	0	44.80736429094213	-10.18321679797609	-10.29046188777934	54.16206322466686	0.945306332943774	0	0	0	-2.733374602809207	-2.840418375221629	1.550851233898507	67.32158289020413	-5.597696553536181	-10.33018629181709	28.0244333098432	111.15609791384	0	0	33.82295418814707	-8.49405461768565	-5.563449304046628	39.40557136369229	123.3801745660297	0	0
9.019999999999897	-4.495936718408082	-0.654687667983449	20.71060510498143	0	0.9399999999999999	0	44.8076633801861	-10.18231233079734	-10.28950770100031	54.16295107294942	0.9453218288195627	0	0	0	44.8076633801861	-10.18231233079734	-10.28950770100031	54.16295107294942	0.9453218288195627	0	0	0	-2.726945234914371	-2.84184769297606	1.550425133615444	67.3039342187827	-5.555307019201636	-10.33475103357154	28.07602585803158	111.0805073888725	0	0	33.8092702472516	-8.483480993776038	-5.5403947892504	39.4250379967643	123.330185753402	0	0
9.039999999999896	-4.501828254703335	-0.6656977197648097	20.70138605085944	0	0.9399999999999999	0	44.80772962806414	-10.1820944455544	-10.28928526248796	54.16314539811414	0.9453252204335066	0	0	0	44.80772962806414	-10.1820944455544	-10.28928526248796	54.16314539811414	0.9453252204335066	0	0	0	-2.736657968489034	-2.849228413018698	1.551601996926947	67.61870834678928	-5.616375148666298	-10.1531133177771	27.79776844215596	110.8504430150483	0	0	33.86301019549128	-8.488408896014112	-5.496809644022124	39.37485591266282	123.2468897429049	0	0
9.059999999999896	-4.507032936530044	-0.6866784875266526	20.69785091069005	0	0.9399999999999999	0	44.80777626028539	-10.18194136172459	-10.28912885808045	54.16328232654271	0.9453276102854247	0	0	0	44.80777626028539	-10.18194136172459	-10.28912885808045	54.16328232654271	0.9453276102854247	0	0	0	-2.749564153871929	-2.864454744917003	1.515594739709231	67.76682144374347	-5.617560044719198	-9.861255550236571	27.72735056338166	110.601058401174	0	0	33.91621409285818	-8.545033149637632	-5.533103941925235	39.36285865445566	123.2154139025662	0	0
9.079999999999895	-4.508050990097944	-0.7201673662679382	20.72831806387326	0	0.9399999999999999	0	44.8078806075469	-10.181596992382	-10.28877758681404	54.16358694336908	0.9453329268520019	0	0	0	44.8078806075469	-10.181596992382	-10.28877758681404	54.16358694336908	0.9453329268520019	0	0	0	-2.763823254156617	-2.890408649090299	1.446102471737978	67.94923410115057	-5.574057197876645	-9.312174495689977	27.72170246274944	109.7688036000255	0	0	33.92565194560554	-8.60086942432023	-5.54417268456566	39.36608998799908	123.2149793691029	0	0
9.099999999999895	-4.509334083533295	-0.7234981650009924	20.7914045258631	0	0.9399999999999999	0	44.80798576804955	-10.18125011309101	-10.28842361961425	54.16389375599118	0.9453382817424442	0	0	0	44.80798576804955	-10.18125011309101	-10.28842361961425	54.16389375599118	0.9453382817424442	0	0	0	-2.76758378574332	-2.887914388482346	1.371885558539493	68.03162968733413	-5.516311133799776	-8.512799232814155	27.77406517356105	108.9282708998365	0	0	33.98387458019506	-8.562561706433547	-5.493934454323903	39.32794560203137	123.1888319198317	0	0
